<svg xmlns="http://www.w3.org/2000/svg" xmlns:xlink="http://www.w3.org/1999/xlink" aria-hidden="true" role="img" class="iconify iconify--icon-park-outline" width="32" height="32" preserveAspectRatio="xMidYMid meet" viewBox="0 0 48 48"><g fill="none"><path stroke="#20b2aa" stroke-linejoin="round" stroke-width="4" d="M41 4H7a3 3 0 0 0-3 3v34a3 3 0 0 0 3 3h34a3 3 0 0 0 3-3V7a3 3 0 0 0-3-3Z"></path><path stroke="currentColor" stroke-linecap="round" stroke-width="4" d="M12 19.054c3.325-4 7.325-6 12-6s8.675 2 12 6"></path><path fill="currentColor" d="M24 31a3 3 0 1 0 0-6a3 3 0 0 0 0 6Z"></path><path stroke="currentColor" stroke-linecap="round" stroke-width="4" d="m19 21l5.008 7"></path></g></svg>
